<svg width="20" height="18" viewBox="0 0 20 18" fill="none" xmlns="http://www.w3.org/2000/svg">
<path d="M7.4614 17.2049C6.59653 17.2049 5.70633 17.1349 4.81079 16.9945C3.23349 16.747 1.63681 15.9219 1.185 15.6749L0 15.027L1.28296 14.6051C2.68539 14.144 3.53851 13.8579 4.59457 13.4099C3.53714 12.8978 2.72217 11.9766 2.32986 10.7858L2.0314 9.87977L2.27615 9.91715C2.04407 9.68324 1.86081 9.44581 1.71875 9.2299C1.21353 8.46253 0.946045 7.52488 1.00296 6.72135L1.05911 5.93049L1.53259 6.1139C1.33286 5.7367 1.18851 5.33387 1.10367 4.91166C0.896912 3.882 1.06995 2.78809 1.59103 1.83152L2.00348 1.07438L2.55508 1.73692C4.29962 3.83256 6.50925 5.07569 9.13177 5.43961C9.02466 4.70124 9.10492 3.98866 9.37057 3.34992C9.67987 2.60621 10.2301 1.97556 10.9613 1.52604C11.7734 1.02692 12.7582 0.785073 13.7343 0.84504C14.7699 0.908669 15.7101 1.2967 16.4569 1.96793C16.8216 1.87318 17.0903 1.77201 17.4535 1.63529C17.672 1.55305 17.9198 1.45966 18.2298 1.35285L19.3724 0.959175L18.6273 3.08717C18.6765 3.08305 18.7271 3.07954 18.7801 3.07725L20.0002 3.02201L19.279 4.00758C19.2377 4.06403 19.2271 4.08006 19.2125 4.10218C19.1544 4.18977 19.082 4.29871 18.0922 5.62043C17.8444 5.95139 17.7206 6.38245 17.7437 6.83442C17.8314 8.55195 17.6207 10.1059 17.117 11.4529C16.6406 12.7274 15.9024 13.8208 14.9231 14.7029C13.7112 15.7942 12.166 16.5415 10.33 16.9235C9.42947 17.1109 8.46237 17.2049 7.4614 17.2049Z" fill="#E5E5E5"/>
</svg>
